<mxfile host="65bd71144e">
    <diagram name="Page-1" id="b520641d-4fe3-3701-9064-5fc419738815">
        <mxGraphModel dx="756" dy="415" grid="1" gridSize="10" guides="1" tooltips="1" connect="1" arrows="1" fold="1" page="1" pageScale="1" pageWidth="1100" pageHeight="850" background="none" math="0" shadow="0">
            <root>
                <mxCell id="0"/>
                <mxCell id="1" parent="0"/>
            </root>
        </mxGraphModel>
    </diagram>
</mxfile>